<?xml version="1.0" encoding="utf-8"?>
<!-- Generator: Adobe Illustrator 27.5.0, SVG Export Plug-In . SVG Version: 6.00 Build 0)  -->
<svg version="1.1" id="Layer_1" xmlns="http://www.w3.org/2000/svg" xmlns:xlink="http://www.w3.org/1999/xlink" x="0px" y="0px"
	 viewBox="0 0 1200 1200" style="enable-background:new 0 0 1200 1200;" xml:space="preserve">
<rect y="0" style="fill:#FFFFFF;" width="1200" height="1200"/>
<g>
	<path style="fill:#3D3D3D;" d="M738.669,447.445h114.442c4.015-2.433,6.911-4.794,6.789-8.76c-0.098-3.796-2.969-8.273-6.789-8.273
		H738.669c-2.263,0-3.991-1.046-3.991-2.433c0-1.387,1.728-2.433,3.991-2.433h114.442c3.82,0,6.692-4.478,6.789-8.274
		c0.122-3.966-2.774-6.327-6.789-8.76H738.669c-2.141,2.433-3.796-1.047-3.772-2.507c0.024-1.411,1.679-2.36,3.772-2.36h114.442
		c3.918,0,6.716-4.624,6.594-8.517c-0.122-3.723-2.871-7.13-6.594-7.86c-84.706-5.28-144.495-2.944-153.863,1.168
		c-13.043,5.694-17.642,14.99-17.642,14.99c-1.217,1.971-2.579,3.82-3.65,5.232c-1.119,1.412-1.947,2.385-2.141,2.628
		c-6.205,7.714-109.332,5.158-115.196,4.842c-45.091-2.531-241.197-15.72-245.991-5.451c-1.193,2.604-2.214,9.441-2.214,16.303
		c0,6.838,0.584,13.7,1.801,16.28c4.769,10.269,200.487-2.92,245.553-5.426c5.889-0.341,108.164-2.896,114.369,4.818
		c0.389,0.511,1.509,3.894,4.112,7.86c0,0,1.557,2.336,4.77,5.402c3.188,3.066,8.03,6.862,14.552,9.709
		c9.368,4.088,70.836,6.497,155.542,1.217c3.723-0.706,6.473-3.285,6.594-7.008c0.122-3.918-2.677-7.519-6.594-7.519H738.669
		c-2.093,0-3.748-0.949-3.772-2.361C734.873,448.492,736.528,445.012,738.669,447.445z M450.021,419.461
		c-36.549-0.778-38.447-1.387-74.218-2.02c-34.384-0.608-52.294-0.414-52.318-1.217c0-0.9,21.755-2.579,42.584-3.261
		c27.229-0.852,45.407,0.243,85.168,2.433c62.489,3.456,76.652,3.967,76.652,4.478C527.865,420.873,474.623,419.997,450.021,419.461
		z M693.676,403.231c-0.195-0.341,7.543-5.621,14.6-9.125c12.191-6.035,21.463-6.327,57.477-6.376
		c29.2-0.048,47.499,0.122,71.493,1.825c4.137,0.292,15.208,1.07,15.208,1.509c-0.024,0.438-10.682,0.341-34.067,0
		c-27.181-0.365-54.338,0.706-81.518,0.925c-5.134,0.049-13.286,0.098-23.433,3.042
		C702.144,398.315,693.871,403.596,693.676,403.231z"/>
	<path style="fill:#3D3D3D;" d="M789.689,760.624c-59.764-4.113-99.744-1.898-109.965-1.266
		c-22.363,1.338-21.292,2.215-43.922,3.699c-32.656,2.093-64.947,2.214-102.543,0.316c-49.471-2.531-213.676-13.943-216.45-1.582
		c-0.292,1.363-1.071,31.78,0,34.433c4.453,11.072,152.646-2.142,218.031-5.597c54.678-2.871,82.346-4.137,98.358,4.453
		c9.952,5.329,33.678,20.708,74.437,20.708c2.214,0,12.97-0.049,27.935-1.168c14.965-1.144,34.092-3.358,53.023-7.714
		c32.753-7.519,76.335-24.066,75.167-34.238C862.934,765.637,838.527,763.982,789.689,760.624z M453.882,771.647
		c-36.549-0.779-38.447-1.387-74.218-2.02c-34.384-0.608-52.293-0.414-52.318-1.217c0-0.9,21.754-2.579,42.584-3.261
		c27.23-0.852,45.407,0.243,85.169,2.434c62.489,3.455,76.651,3.966,76.651,4.477C531.726,773.059,478.483,772.183,453.882,771.647z
		 M786.866,770.43c-17.277-0.292-40.005-0.195-84.779,0c-45.529,0.219-59.155,0.438-59.204-0.389c0-1.168,25.697-3.601,48.157-4.891
		c24.431-1.387,53.364-1.849,89.329,0.024c39.348,2.044,75.021,6.302,75.021,7.3C786.866,770.43,786.866,770.43,786.866,770.43z"/>
	<g>
		<path style="fill:#3D3D3D;" d="M404.073,532.362c0.086,8.056,0.225,16.104,0.42,24.145c0.318-0.082,0.637-0.164,0.956-0.247
			c8.761-2.255,12.794-13.271,11.011-20.975c-1.292-5.515-5.964-9.55-14.564-7.389c-17.896,4.535-27.071,16.967-22.659,31.693
			c1.456,4.958,3.047,5.336,3.407,6.182c-7.231,2.112-11.944,0.936-14.1-6.035c-4.12-12.851,12.252-31.35,30.885-36.021
			c17.536-4.417,26.927,1.764,28.673,9.844c1.326,6.041-1.371,13.871-7.77,19.546c5.888,0.175,8.537,3.539,9.586,8.178
			c1.803,8.103-0.778,20.027,0.681,26.141c0.694,2.958,2.832,5.267,5.449,5.603c-3.96,2.152-7.146,3.434-9.555,4.018
			c-6.507,1.588-8.655-1.392-9.482-4.637c-1.681-6.477,0.684-19.705-1.123-27.183c-0.966-3.931-3.229-6.308-7.984-5.097
			c-0.948,0.242-2.084,0.639-3.272,1.261c0.396,13.051,0.934,26.081,1.613,39.089c-4.797,1.306-9.585,2.662-14.362,4.067
			c-1.548-21.929-2.692-43.93-3.431-65.991C393.634,536.437,398.841,534.373,404.073,532.362z"/>
		<path style="fill:#3D3D3D;" d="M461.466,580.278c3.887-0.735,6.871-4.053,9.073-9.168c-0.834-7.155,2.137-11.891,5.993-12.828
			c2.723-7.116,3.8-16.404,4.485-24.298c5.098-1.804,10.222-3.557,15.372-5.259c0.062,0.468,0.124,0.936,0.186,1.404
			c2.23,16.554,10.102,20.658,11.514,32.436c0.086,0.702,0.173,1.408,0.155,2.124c2.609-2.871,4.932-5.792,6.036-7.343
			c1.041,1.037,2.079,2.076,3.112,3.117c-2.693,2.536-6.461,6.54-10.166,10.477c-2.006,5.871-7.317,10.403-16.773,11.816
			c-9.764,1.475-15.724,0.179-18.492-5.929c-3.314,5.927-7.935,10.347-16.124,11.974c-9.677,1.938-16.517-4.074-18.424-12.585
			c-2.832-12.492-1.994-36.034,17.882-39.819c8.908-1.654,14.485,0.938,15.644,7.925c1.973,12.178-10.541,21.514-20.119,24.72
			c0.111,1.629,0.305,3.141,0.545,4.333C452.693,579.925,457.483,581.03,461.466,580.278z M459.835,541.02
			c-6.066,1.102-8.83,13.314-9.138,23.085c9.568-2.012,15.01-11.063,13.896-18.177C464.224,543.835,463.072,540.435,459.835,541.02z
			 M479.716,570.592c-1.242,0.201-2.533,0.106-3.878-0.286c0.995,5.896,4.706,7.931,10.135,7.087
			c3.476-0.546,7.898-5.484,6.81-13.202c-0.876-6.223-6.396-10.843-8.511-23.324c-0.986,5.17-1.498,11.804-3.027,17.171
			c2.654,0.404,3.873,2.065,4.331,5.069C486.15,566.911,483.336,570.004,479.716,570.592z"/>
		<path style="fill:#3D3D3D;" d="M535.911,510.482c0,0-1.138,7-2.447,16.261c2.189-0.186,4.378-0.362,6.568-0.529
			c-0.189,1.369-0.377,2.737-0.563,4.105c-2.178,0.169-4.356,0.346-6.534,0.533c-4.648,32.541-4.193,33.547-4.217,34.048
			c0.223,2.321,1.402,3.726,5.546,3.357c4.133-0.368,9.08-6.452,13.069-9.974c1.19-0.083,2.381-0.164,3.572-0.241
			c-4.607,4.946-15.198,19.271-23.096,20.075c-7.864,0.776-13.058-2.061-13.948-9.611c-0.664-5.333,2.421-27.294,3.407-36.151
			c-1.195,0.127-2.391,0.256-3.585,0.388c0.141-1.374,0.283-2.747,0.427-4.121c1.202-0.132,2.404-0.26,3.607-0.387
			c0.606-4.749,1.232-9.498,1.877-14.246C525.015,512.764,530.455,511.595,535.911,510.482z"/>
		<path style="fill:#3D3D3D;" d="M591.893,523.974c-2.516,11.507-4.918,23.025-7.204,34.554c-0.187,1.116-0.374,2.237-0.354,3.147
			c0.048,2.23,1.123,3.821,5.277,3.759c4.146-0.061,9.528-5.76,13.765-8.977c1.192,0.005,2.384,0.013,3.576,0.024
			c-4.958,4.592-16.573,18.091-24.501,18.306c-6.667,0.16-11.265-2.078-12.836-7.289c-2.948,4.278-7.36,8.629-13.6,9
			c-9.812,0.604-13.216-5.984-13.688-11.958c-1.418-17.3,3.678-38.877,25.763-39.861c2.634-0.107,5.414,0.81,7.429,2.268
			c0.191-0.884,0.383-1.768,0.576-2.652C581.359,524.135,586.626,524.029,591.893,523.974z M556.235,560.859
			c0.36,6.067,3.841,6.981,6.43,6.854c2.382-0.12,4.559-2.447,6.427-5.363c0.063-1.014,0.227-2.137,0.491-3.364
			c1.597-9.02,3.265-18.035,5.002-27.044c-1.785-1.362-3.871-1.691-5.394-1.631C560.956,530.634,555.374,547.114,556.235,560.859z"
			/>
		<path style="fill:#3D3D3D;" d="M648.598,525.436c-3.338,11.296-6.562,22.612-9.671,33.946c-0.266,1.101-0.533,2.203-0.579,3.113
			c-0.112,2.229,0.843,3.891,4.994,4.129c4.141,0.237,9.92-5.06,14.381-7.964c1.19,0.091,2.38,0.185,3.57,0.282
			c-5.28,4.222-17.845,16.85-25.767,16.496c-6.966-0.336-11.598-3.101-12.358-9.006c-5.024,4.301-10.64,8.239-15.048,8.193
			c-7.892-0.083-12.84-3.47-12.905-11.071c-0.01-1.52,0.187-3.245,0.599-5.169c2.455-11.494,5.025-22.976,7.71-34.444
			c5.267,0.024,10.535,0.1,15.8,0.23c-2.916,11.412-5.716,22.84-8.402,34.282c-0.227,1.11-0.451,2.223-0.463,3.133
			c-0.03,2.232,0.989,3.857,5.145,3.94c2.183,0.046,4.817-1.51,7.491-3.455c0.136-1.009,0.379-2.116,0.732-3.32
			c2.882-11.395,5.878-22.773,8.989-34.133C638.078,524.839,643.339,525.111,648.598,525.436z"/>
		<path style="fill:#3D3D3D;" d="M677.383,527.746c-0.566,1.64-1.13,3.281-1.691,4.922c4.181-2.442,8.794-4.203,13.383-3.68
			c4.918,0.561,7.542,3.551,7.062,7.368c-0.443,3.518-3.769,7.482-9.01,6.885c-6.005-0.668-2.278-6.979-5.521-7.329
			c-3.245-0.34-5.095,0.6-7.777,2.479c-4.242,12.891-8.332,25.813-12.272,38.765c-4.916-0.412-9.835-0.775-14.756-1.088
			c4.695-16.618,9.638-33.193,14.827-49.719C666.883,526.762,672.135,527.228,677.383,527.746z"/>
		<path style="fill:#3D3D3D;" d="M744.776,537.354c-4.71,10.798-9.308,21.631-13.794,32.497c-0.4,1.06-0.801,2.121-0.958,3.018
			c-0.384,2.198,0.364,3.965,4.468,4.714c4.095,0.746,10.504-3.796,15.305-6.127c1.174,0.238,2.347,0.478,3.52,0.721
			c-5.781,3.537-19.844,14.519-27.69,13.19c-6.593-1.139-10.684-4.227-11.219-9.644c-3.73,3.624-8.912,7.037-15.117,6.191
			c-9.76-1.309-11.823-8.434-11.131-14.385c1.963-17.246,11.135-37.43,33.047-34.109c2.613,0.405,5.17,1.846,6.87,3.667
			c0.359-0.83,0.72-1.66,1.08-2.49C734.37,535.463,739.576,536.382,744.776,537.354z M702.536,566.614
			c-0.822,6.021,2.422,7.593,4.994,7.971c2.367,0.345,4.957-1.517,7.361-4.014c0.258-0.984,0.637-2.054,1.135-3.205
			c3.32-8.539,6.707-17.059,10.163-25.56c-1.492-1.683-3.482-2.411-4.99-2.647C713.035,537.875,704.354,552.962,702.536,566.614z"/>
		<path style="fill:#3D3D3D;" d="M784.517,581.324c-0.581,1.001-1.057,2.031-1.303,3.013c-0.544,2.165,0.205,3.908,4.159,4.932
			c4.055,1.057,6.374-1.576,11.309-3.591c1.156,0.317,2.311,0.635,3.466,0.957c-5.979,3.165-16.426,11.677-24.209,9.747
			c-7.818-1.94-11.679-6.334-9.989-13.745c0.363-1.58,0.933-3.112,1.776-4.891c2.673-5.62,5.377-11.23,8.111-16.829
			c0.42-0.836,0.737-1.699,0.923-2.487c0.845-3.547-0.639-6.297-3.519-6.961c-2.559-0.589-4.637-0.33-7.179,0.559
			c-5.962,12.652-11.769,25.357-17.419,38.113c-4.85-1.013-9.708-1.976-14.572-2.889c6.697-15.919,13.637-31.766,20.817-47.534
			c5.187,1.055,10.367,2.161,15.537,3.321c-0.83,1.682-1.658,3.365-2.482,5.049c5.044-1.991,10.553-3.211,15.282-2.065
			c5.822,1.4,10.884,8.779,9.157,15.344c-0.203,0.786-0.408,1.569-0.82,2.301C790.514,569.539,787.498,575.425,784.517,581.324z"/>
		<path style="fill:#3D3D3D;" d="M808.122,587.696c-0.641,1.079-1.178,2.191-1.485,3.261c-0.586,2.047-0.197,3.734,2.522,4.527
			c0.708,0.206,1.814,0.531,2.707,0.479c-5.291,7.515-9.809,6.843-13.207,5.895c-6.976-1.944-8.794-7.217-7.195-13.297
			c0.416-1.567,1.084-3.276,1.961-4.928c4.782-9.211,9.651-18.389,14.605-27.532c-1.168-0.321-2.336-0.64-3.505-0.956
			c0.635-1.227,1.272-2.452,1.91-3.678c1.176,0.319,2.35,0.641,3.525,0.966c2.308-4.196,4.636-8.385,6.981-12.567
			c5.536,0.854,11.075,1.77,16.614,2.746c0,0-3.637,6.093-8.262,14.228c2.125,0.634,4.249,1.277,6.37,1.93
			c-0.679,1.203-1.357,2.407-2.034,3.612c-2.111-0.646-4.224-1.284-6.339-1.913C818.149,569.508,813.093,578.584,808.122,587.696z"
			/>
	</g>
	<g>
		<g>
			<path style="fill:#3D3D3D;" d="M569.73,690.902c2.753,0,7.47-3.259,9.436-7.414h2.527c-3.201,5.784-8.594,11.457-15.838,11.457
				c-5.393,0-8.313-4.1-8.313-8.93c0-7.134,3.033-19.658,13.255-19.658c4.606,0,7.189,1.911,7.189,5.841
				c0,6.853-7.357,10.783-12.692,11.457c-0.113,0.899-0.17,1.741-0.17,2.415C565.124,689.777,567.538,690.902,569.73,690.902z
				 M572.65,669.335c-3.146,0-5.728,6.345-6.908,11.625c5.167-0.055,8.817-4.494,8.874-8.481
				C574.617,671.299,574.336,669.335,572.65,669.335z"/>
			<path style="fill:#3D3D3D;" d="M592.977,655.631l-6.458,30.328c-0.17,0.842-0.281,1.348-0.281,1.796
				c0,1.235,0.616,2.079,2.808,2.079c2.247,0,5.167-3.146,7.412-4.945h1.911c-2.585,2.585-8.93,10.055-13.311,10.055
				c-4.326,0-6.966-1.909-6.966-6.122c0-0.842,0.113-1.796,0.338-2.863l6.234-29.206L592.977,655.631z"/>
			<path style="fill:#3D3D3D;" d="M605.895,666.863l-4.045,19.097c-0.11,0.617-0.223,1.235-0.223,1.741
				c0,1.235,0.561,2.134,2.808,2.134c2.247,0,5.168-3.146,7.412-4.945h1.911c-2.585,2.585-8.93,10.055-13.31,10.055
				c-4.326,0-7.021-1.909-7.021-6.122c0-0.842,0.113-1.796,0.338-2.863l4.043-19.097H605.895z M603.31,654.957
				c2.472,0,4.494,2.021,4.494,4.491c0,2.472-2.021,4.438-4.494,4.438c-2.47,0-4.436-1.966-4.436-4.438
				C598.874,656.979,600.84,654.957,603.31,654.957z"/>
			<path style="fill:#3D3D3D;" d="M623.582,657.988c0,0-0.841,3.82-1.909,8.875h3.369l-0.448,2.247h-3.371
				c-3.875,17.747-3.817,18.308-3.817,18.591c0,1.29,0.561,2.134,2.808,2.134c2.247,0,5.168-3.146,7.414-4.945h1.909
				c-2.585,2.585-8.93,10.055-13.311,10.055c-4.326,0-6.964-1.909-6.964-6.122c0-2.976,2.921-14.884,3.875-19.713h-1.854
				l0.449-2.247h1.854l1.686-7.75L623.582,657.988z"/>
			<path style="fill:#3D3D3D;" d="M624.254,686.015c0-7.134,3.033-19.658,13.255-19.658c4.604,0,7.189,1.911,7.189,5.841
				c0,6.853-7.359,10.783-12.694,11.457c-0.113,0.899-0.168,1.741-0.168,2.415c0,3.707,1.854,4.832,4.043,4.832
				c2.64,0,4.887-1.518,7.189-3.595c0,6.064-4.885,7.637-10.503,7.637C627.174,694.945,624.254,690.844,624.254,686.015z
				 M639.363,669.335c-3.146,0-5.731,6.345-6.908,11.625c5.165-0.055,8.817-4.494,8.872-8.481
				C641.327,671.299,641.046,669.335,639.363,669.335z"/>
		</g>
		<polygon style="fill:#3D3D3D;" points="665.585,671.9 785.131,679.374 665.585,686.848 		"/>
		<polygon style="fill:#3D3D3D;" points="534.425,671.9 414.879,679.374 534.425,686.848 		"/>
	</g>
	<path style="fill:#3D3D3D;" d="M1049.346,610.88H921.974l22.587-73.363l-4.699-1.444
		c-110.238-33.901-224.613-51.121-339.959-51.121c-115.345,0-229.721,17.22-339.981,51.121l-4.676,1.444l22.564,73.363H150.654
		l79.031,53.341l-77.026,61.272h219.376l1.854-4.763l36.854-94.311c125.173-23.47,253.062-23.47,378.235-0.022l37.134,95.022
		l1.595,4.073h219.635l-77.026-61.272L1049.346,610.88z M180.698,715.708l65.539-52.134l-63.535-42.888h98.126l8.082,26.272
		l1.703,5.517l3.103,2.974l14.548,13.923l6.358,6.099l10.237,9.784l9.203,8.815l8.341,7.996l9.828,9.418l4.418,4.224H180.698z
		 M373.889,693.769l-7.069,18.104l-2.716-2.586l-34.828-33.362l-8.362-7.996l-16.444-15.754
		c19.763-5.905,39.655-11.207,59.634-15.905c3.276-0.776,6.53-1.53,9.785-2.263c8.491-1.918,16.983-3.707,25.474-5.409
		L373.889,693.769z M784.775,615.643c-122.436-22.177-247.372-22.177-369.83,0.022c-3.772,0.668-7.565,1.401-11.336,2.112
		c-9.936,1.897-19.828,3.966-29.72,6.185v-0.216l-1.164,0.453c-0.022,0-0.022,0-0.022,0c-2.888,0.646-5.733,1.315-8.599,1.983
		c-22.09,5.151-44.052,11.035-65.905,17.651l-0.151-0.496l-6.961-22.651l-3.017-9.806l-20.582-66.875
		c217.588-65.927,447.223-65.927,664.811,0l-20.561,66.875l-3.017,9.806l-6.983,22.673l-0.129,0.474
		c-21.789-6.595-43.686-12.457-65.69-17.586c-2.996-0.711-6.013-1.401-9.009-2.069l-0.797-0.323v0.129
		c-10-2.198-19.979-4.289-30-6.207C792.34,617.044,788.547,616.333,784.775,615.643z M832.9,711.872l-6.789-17.328l-25.776-65.97
		c8.621,1.724,17.198,3.556,25.776,5.495c3.276,0.711,6.552,1.466,9.806,2.242c19.871,4.698,39.655,9.957,59.354,15.841
		l-59.354,56.854L832.9,711.872z M1019.302,715.708h-176.23l62.953-60.28l3.19-3.082l1.659-5.366l8.082-26.293h98.363
		l-63.535,42.888L1019.302,715.708z"/>
	<polygon style="fill:#3D3D3D;" points="931.072,549.841 834.23,529.668 928.513,559.602 	"/>
	<polygon style="fill:#3D3D3D;" points="354.37,701.487 243.659,706.83 354.397,711.578 	"/>
	<polygon style="fill:#3D3D3D;" points="337.27,684.235 273.811,689.45 337.297,694.326 	"/>
	<polygon style="fill:#3D3D3D;" points="329.276,675.924 329.276,677.066 314.621,675.471 284.082,672.152 308.263,669.372 
		320.914,667.928 	"/>
	<polygon style="fill:#3D3D3D;" points="845.455,701.487 956.165,706.83 845.428,711.578 	"/>
	<polygon style="fill:#3D3D3D;" points="862.554,684.235 926.014,689.45 862.527,694.326 	"/>
	<polygon style="fill:#3D3D3D;" points="870.548,675.924 870.548,677.066 885.203,675.471 915.742,672.152 891.561,669.372 
		878.91,667.928 	"/>
	<polygon style="fill:#3D3D3D;" points="925.598,569.605 863.829,558.626 923.039,579.366 	"/>
	<polygon style="fill:#3D3D3D;" points="918.415,593.005 845.21,579.028 915.856,602.766 	"/>
	<polygon style="fill:#3D3D3D;" points="912.617,611.651 852.834,601.194 910.058,621.412 	"/>
	<polygon style="fill:#3D3D3D;" points="905.985,630.293 811.265,611.196 903.477,640.067 	"/>
	<polygon style="fill:#3D3D3D;" points="268.843,549.841 365.685,529.668 271.402,559.602 	"/>
	<polygon style="fill:#3D3D3D;" points="274.316,569.605 336.085,558.626 276.875,579.366 	"/>
	<polygon style="fill:#3D3D3D;" points="281.5,593.005 354.705,579.028 284.059,602.766 	"/>
	<polygon style="fill:#3D3D3D;" points="287.297,611.651 347.081,601.194 289.856,621.412 	"/>
	<polygon style="fill:#3D3D3D;" points="293.93,630.293 388.649,611.196 296.438,640.067 	"/>
</g>
</svg>
